<svg id="Layer_1" data-name="Layer 1" xmlns="http://www.w3.org/2000/svg" viewBox="0 0 82.34 45">
  <defs>
    <style>
      .cls-1 {
        fill: #fff;
      }
    </style>
  </defs>
  <g>
    <path class="cls-1" d="M33.87,16.93V8.36c0-.2,0-.37.27-.37,2.37,0,4.73,0,7.1,0,5.29.19,7.55,4,8,7.39a11.56,11.56,0,0,1-.39,5A7.38,7.38,0,0,1,43,25.56a14.39,14.39,0,0,1-3.07.29q-2.84,0-5.67,0c-.3,0-.39-.05-.39-.38C33.87,22.62,33.87,19.78,33.87,16.93Zm4.54,0c0,1.54,0,3.09,0,4.63,0,.26.07.32.31.31.66,0,1.32,0,2,0a3.69,3.69,0,0,0,3.71-2.66,7,7,0,0,0-.06-4.5A3.61,3.61,0,0,0,41.09,12c-.79-.09-1.58,0-2.37,0-.25,0-.31.06-.31.31C38.42,13.83,38.41,15.36,38.41,16.89Z" transform="translate(33.03 14.85)"/>
    <path class="cls-1" d="M14.42,25.84l2.15-5.36q2.41-6,4.84-12.11A.5.5,0,0,1,22,8c1,0,1.93,0,2.9,0a.36.36,0,0,1,.4.26q3.41,8.66,6.85,17.28c.09.25.09.32-.2.32q-2.17,0-4.35,0a.32.32,0,0,1-.37-.27c-.22-.71-.47-1.4-.7-2.1-.05-.16-.11-.23-.29-.23-1.92,0-3.83,0-5.74,0a.28.28,0,0,0-.31.22c-.25.72-.51,1.44-.77,2.15,0,.13-.08.23-.26.23Zm9-12.36a1.23,1.23,0,0,0-.08.15q-.87,2.89-1.75,5.78c-.06.23,0,.24.21.24H25c.26,0,.27-.08.2-.29-.24-.77-.46-1.53-.69-2.3C24.14,15.89,23.78,14.72,23.41,13.48Z" transform="translate(33.03 14.85)"/>
    <path class="cls-1" d="M5.08,16.87c0-2.84,0-5.67,0-8.51,0-.3.08-.37.37-.37H14.5c.29,0,.35.08.35.36,0,1.11,0,2.22,0,3.34,0,.25-.08.31-.32.31H9.79c-.26,0-.35,0-.34.32q0,1.18,0,2.37c0,.3.1.35.36.35h4.52c.28,0,.34.07.34.34,0,1.11,0,2.22,0,3.34,0,.26-.06.33-.33.33H9.78c-.28,0-.33.07-.33.33,0,2,0,4.1,0,6.14,0,.26,0,.35-.33.34H5.44c-.28,0-.36-.06-.36-.35C5.09,22.61,5.08,19.74,5.08,16.87Z" transform="translate(33.03 14.85)"/>
    <path class="cls-1" d="M-18.23,13.9v5.24A10.73,10.73,0,0,1-20,25.21,10.61,10.61,0,0,1-27.4,30a32.46,32.46,0,0,1-4.73.12c-.89,0-.89,0-.89-.89s0-1.53,0-2.29c0-.27.09-.35.35-.34,1.11,0,2.22,0,3.34,0a7.94,7.94,0,0,0,3.8-.84,7.18,7.18,0,0,0,3.74-5.28,9.63,9.63,0,0,0,.13-1.78c0-3.42,0-6.84,0-10.26,0-.33.09-.42.42-.42.88,0,1.77,0,2.65,0,.3,0,.39.07.39.37C-18.24,10.24-18.23,12.07-18.23,13.9Z" transform="translate(33.03 14.85)"/>
    <path class="cls-1" d="M-2.7,16.92c0-2.84,0-5.69,0-8.53,0-.35.1-.41.41-.4H1.51c.26,0,.37,0,.37.34q0,8.6,0,17.18c0,.26-.05.34-.33.34-1.31,0-2.63,0-3.94,0-.26,0-.31-.07-.31-.32Q-2.69,21.23-2.7,16.92Z" transform="translate(33.03 14.85)"/>
    <path class="cls-1" d="M-17.5,14c0-1.86,0-3.73,0-5.6,0-.28.06-.39.37-.38.88,0,1.77,0,2.65,0,.36,0,.43.11.43.45q0,5.33,0,10.65a3.15,3.15,0,0,0,2.42,3.12,4.2,4.2,0,0,0,1,.11c1.14,0,2.27,0,3.41,0,.26,0,.35.06.35.34,0,1,0,1.91,0,2.87,0,.25-.07.33-.32.33-1.27,0-2.54,0-3.81,0A6.61,6.61,0,0,1-17.44,20a22.74,22.74,0,0,1,0-2.61C-17.51,16.26-17.5,15.11-17.5,14Z" transform="translate(33.03 14.85)"/>
    <path class="cls-1" d="M-22.44,14.09c0,1.77,0,3.54,0,5.3a6.53,6.53,0,0,1-5.91,6.39c-1.47.12-2.94,0-4.41.06-.25,0-.25-.14-.25-.32,0-1,0-1.92,0-2.87,0-.27.08-.35.35-.35,1.14,0,2.29,0,3.44,0a3.31,3.31,0,0,0,2.14-.69A3.17,3.17,0,0,0-25.88,19c0-3.5,0-7,0-10.48,0-.54,0-.54.54-.54.84,0,1.68,0,2.51,0,.33,0,.4.1.4.4,0,1.9,0,3.8,0,5.71Z" transform="translate(33.03 14.85)"/>
    <path class="cls-1" d="M-20,7.33A4,4,0,0,0-22.42,5a6.87,6.87,0,0,1-3.17-2.15A4.71,4.71,0,0,1-26.15-2,1.64,1.64,0,0,0-26-2.63v-12c0-.14.07-.2.2-.19s.15.09.15.2V-2.73a4,4,0,0,0,.13,1A2.38,2.38,0,0,0-24.12,0c.33.14.66.29,1,.42a8.11,8.11,0,0,1,2.87,2.22c.22.25.33.3.58,0A8,8,0,0,1-16.28.24a2.81,2.81,0,0,0,2-3V-14.67c0-.12,0-.18.17-.18s.19,0,.19.17v12a1,1,0,0,0,.08.49A4.73,4.73,0,0,1-15.4,3.91a7.48,7.48,0,0,1-1.88,1A4.16,4.16,0,0,0-20,7.33Z" transform="translate(33.03 14.85)"/>
    <path class="cls-1" d="M-20-1.24A9.08,9.08,0,0,1-18-3.56a6.08,6.08,0,0,1,1.29-.84A3.06,3.06,0,0,0-16-4.85a1.6,1.6,0,0,0,.58-1.26v-8.33a2.62,2.62,0,0,1,0-.28c0-.09.06-.12.14-.12s.15,0,.15.12a2.71,2.71,0,0,1,0,.29v7.35A1.18,1.18,0,0,0-15-6.5a3.57,3.57,0,0,1,.34,1.74A6.15,6.15,0,0,1-16-.95a3.66,3.66,0,0,1-1.1.9A6.66,6.66,0,0,0-20,2.54a7.44,7.44,0,0,0-3-2.67,5.25,5.25,0,0,1-2.33-4,3.58,3.58,0,0,1,.16-2.08A4.18,4.18,0,0,0-24.83-8q0-3.19,0-6.39v-.29c0-.1.05-.15.16-.14a.13.13,0,0,1,.14.13v.29c0,2.69,0,5.38,0,8.07a1.83,1.83,0,0,0,1.09,1.82A8.29,8.29,0,0,1-20-1.24Z" transform="translate(33.03 14.85)"/>
    <path class="cls-1" d="M-20-2.26A5.12,5.12,0,0,0-22-4.08,3.64,3.64,0,0,1-23.59-8.7a4.15,4.15,0,0,0,.3-1.68v-4.06a2.62,2.62,0,0,1,0-.28c0-.11.1-.12.19-.12a.13.13,0,0,1,.14.13V-9a2.17,2.17,0,0,0,1,2,.87.87,0,0,0,.19.1c.22.1.33.05.27-.21a3.74,3.74,0,0,1,0-1.63,2,2,0,0,0,0-.43c0-1.69,0-3.39,0-5.09a1.48,1.48,0,0,1,0-.21c0-.13-.08-.33.16-.33s.13.19.14.31,0,.24,0,.36v4.79A1.48,1.48,0,0,1-20-9.95a1.15,1.15,0,0,1,1,.53c.13-.12.08-.25.08-.35v-4.74c0-.12-.09-.32.15-.33s.19.2.19.34q0,2.57,0,5.13a3.27,3.27,0,0,0,.09.93,2.87,2.87,0,0,1,0,1.27c0,.09-.1.2,0,.27a.32.32,0,0,0,.31,0,2,2,0,0,0,1.08-1.4,4.76,4.76,0,0,0,.07-1v-5.09a2.71,2.71,0,0,1,0-.29c0-.1.09-.13.18-.13s.16.05.16.15v4.52a3.16,3.16,0,0,0,.28,1.4,3.38,3.38,0,0,1-.27,3.41,3.79,3.79,0,0,1-1.69,1.5A4,4,0,0,0-20-2.26Z" transform="translate(33.03 14.85)"/>
  </g>
</svg>
